<svg xmlns="http://www.w3.org/2000/svg" width="800" height="800" viewBox="0 0 512 512"><circle cx="256" cy="256" r="256" fill="#a6dae8"/><path fill="#9ac2d9" d="m493.3 352.06-.553-.276-203.68-215.98-96.123-48.061-96.123 48.061v123.39l120.91 119.71 8.54 24.94 90.788 100.77c80.292-19.662 145.68-77.164 176.24-152.56"/><path fill="#ff763b" d="m289.06 135.81-96.123 48.067-96.123-48.067 96.123-48.061z"/><path fill="#fc611f" d="m192.94 306.28-96.123-47.078v-123.39l96.123 48.067z"/><path fill="#e64500" d="m192.94 306.28 96.123-47.078v-123.39l-96.123 48.067z"/><g fill="#fff"><path d="M153.88 221.38c0 6.733-4.029 10.706-9.001 8.873s-9.001-8.781-9.001-15.514 4.029-10.706 9.001-8.873c4.971 1.838 9.001 8.781 9.001 15.514m80.931 1.361c0 6.733 4.029 10.706 9.001 8.873s9.001-8.781 9.001-15.514-4.029-10.706-9.001-8.873c-4.971 1.839-9.001 8.782-9.001 15.514m-29.26-16.972c0 6.733 4.029 10.706 9.001 8.873s9.001-8.781 9.001-15.514-4.029-10.706-9.001-8.873-9.001 8.781-9.001 15.514m0 66.488c0 6.733 4.029 10.706 9.001 8.873s9.001-8.781 9.001-15.514-4.029-10.706-9.001-8.873-9.001 8.781-9.001 15.514m54.912-93.563c0 6.733 4.029 10.706 9.001 8.873s9.001-8.781 9.001-15.514-4.029-10.706-9.001-8.873c-4.967 1.833-9.001 8.776-9.001 15.514m0 66.488c0 6.733 4.029 10.706 9.001 8.873s9.001-8.781 9.001-15.514-4.029-10.706-9.001-8.873-9.001 8.782-9.001 15.514m-136.89-68.889c0 6.733-4.029 10.706-9.001 8.873s-9.001-8.781-9.001-15.514 4.029-10.706 9.001-8.873 9.001 8.781 9.001 15.514m56.551 94.167c0 6.733-4.029 10.706-9.001 8.873s-9.001-8.781-9.001-15.514 4.029-10.706 9.001-8.873c4.971 1.838 9.001 8.781 9.001 15.514"/><ellipse cx="192.94" cy="135.81" rx="12.611" ry="8.53"/></g><path fill="#ff763b" d="m414.78 351.28-101.95-33.986-33.987-101.96 101.96 33.987z"/><path fill="#fc611f" d="m226.26 403.84-34.678-101.26 87.25-87.25 33.987 101.96z"/><path fill="#e64500" d="m226.26 403.84 101.26 34.683 87.25-87.25-101.95-33.986z"/><path fill="#fff" d="M306.253 341.693c-4.762 4.762-4.721 10.419.092 12.641 4.813 2.217 12.575.159 17.336-4.603 4.762-4.762 4.721-10.419-.092-12.641s-12.575-.158-17.336 4.603m-47.017 47.012c-4.762 4.762-4.721 10.419.092 12.641 4.813 2.217 12.575.159 17.336-4.603 4.762-4.762 4.721-10.419-.092-12.641s-12.575-.158-17.336 4.603m77.363-36.843c-4.762 4.762-4.721 10.419.092 12.641s12.575.159 17.336-4.603 4.721-10.419-.092-12.641c-4.812-2.222-12.574-.159-17.336 4.603m-47.017 47.017c-4.762 4.762-4.721 10.419.092 12.641 4.813 2.217 12.575.159 17.336-4.603 4.762-4.762 4.721-10.419-.092-12.641s-12.574-.159-17.336 4.603m74.65-37.504c-4.762 4.762-4.721 10.419.092 12.641 4.813 2.217 12.575.159 17.336-4.603s4.721-10.419-.092-12.641c-4.813-2.217-12.575-.159-17.336 4.603m-47.017 47.017c-4.762 4.762-4.721 10.419.092 12.641 4.813 2.217 12.575.159 17.336-4.603 4.762-4.762 4.721-10.419-.092-12.641s-12.575-.159-17.336 4.603m-48.087-145.511c-4.762 4.762-10.419 4.721-12.641-.092-2.217-4.813-.159-12.575 4.603-17.336 4.762-4.762 10.419-4.721 12.641.092s.158 12.575-4.603 17.336m-26.599 106.573c-4.762 4.762-10.419 4.721-12.641-.092-2.217-4.813-.159-12.575 4.603-17.336s10.419-4.721 12.641.092.159 12.574-4.603 17.336"/><ellipse cx="346.8" cy="283.27" fill="#fff" rx="8.53" ry="12.61" transform="rotate(-45.001 346.8 283.28)"/></svg>